HIERARCHY
ROOT Hips
{
 OFFSET 0.000000 0.000000 0.000000
 CHANNELS 6 Xposition Yposition Zposition Yrotation Xrotation Zrotation
 JOINT Chest
 {
  OFFSET 0.000000 9.585900 0.002600
  CHANNELS 3 Yrotation Xrotation Zrotation
  JOINT Chest2
  {
   OFFSET 0.000000 9.601200 -0.005300
   CHANNELS 3 Yrotation Xrotation Zrotation
   JOINT Chest3
   {
    OFFSET 0.000000 9.561800 0.000000
    CHANNELS 3 Yrotation Xrotation Zrotation
    JOINT Chest4
    {
     OFFSET 0.000000 9.552100 0.000000
     CHANNELS 3 Yrotation Xrotation Zrotation
     JOINT Neck
     {
      OFFSET 0.000000 14.453000 0.000000
      CHANNELS 3 Yrotation Xrotation Zrotation
      JOINT Head
      {
       OFFSET 0.000000 8.936500 -0.011300
       CHANNELS 3 Yrotation Xrotation Zrotation
       End Site
       {
        OFFSET 0.000000 17.073600 -0.006000
       }
      }
     }
     JOINT RightCollar
     {
      OFFSET -2.921100 9.558500 0.000000
      CHANNELS 3 Yrotation Xrotation Zrotation
      JOINT RightShoulder
      {
       OFFSET -13.519700 0.000000 0.000000
       CHANNELS 3 Yrotation Xrotation Zrotation
       JOINT RightElbow
       {
        OFFSET 0.000000 -29.696600 0.000000
        CHANNELS 3 Yrotation Xrotation Zrotation
        JOINT RightWrist
        {
         OFFSET 0.000000 -24.004700 0.000000
         CHANNELS 3 Yrotation Xrotation Zrotation
         End Site
         {
          OFFSET 0.000000 -17.728500 0.000000
         }
        }
       }
      }
     }
     JOINT LeftCollar
     {
      OFFSET 2.921100 9.558500 0.000000
      CHANNELS 3 Yrotation Xrotation Zrotation
      JOINT LeftShoulder
      {
       OFFSET 13.519700 0.000000 0.000000
       CHANNELS 3 Yrotation Xrotation Zrotation
       JOINT LeftElbow
       {
        OFFSET 0.000000 -29.696600 0.000000
        CHANNELS 3 Yrotation Xrotation Zrotation
        JOINT LeftWrist
        {
         OFFSET 0.000000 -24.004700 0.000000
         CHANNELS 3 Yrotation Xrotation Zrotation
         End Site
         {
          OFFSET 0.000000 -17.728500 0.000000
         }
        }
       }
      }
     }
    }
   }
  }
 }
 JOINT RightHip
 {
  OFFSET -7.771700 -0.012900 -0.001300
  CHANNELS 3 Yrotation Xrotation Zrotation
  JOINT RightKnee
  {
   OFFSET 0.000000 -40.869800 0.001200
   CHANNELS 3 Yrotation Xrotation Zrotation
   JOINT RightAnkle
   {
    OFFSET 0.000000 -39.717900 0.002100
    CHANNELS 3 Yrotation Xrotation Zrotation
    JOINT RightToe
    {
     OFFSET 0.000000 -4.965400 11.033500
     CHANNELS 3 Yrotation Xrotation Zrotation
     End Site
     {
      OFFSET 0.000000 -1.423100 5.872300
     }
    }
   }
  }
 }
 JOINT LeftHip
 {
  OFFSET 7.771700 -0.012900 -0.001300
  CHANNELS 3 Yrotation Xrotation Zrotation
  JOINT LeftKnee
  {
   OFFSET 0.000000 -40.869800 0.001200
   CHANNELS 3 Yrotation Xrotation Zrotation
   JOINT LeftAnkle
   {
    OFFSET 0.000000 -39.717900 0.002100
    CHANNELS 3 Yrotation Xrotation Zrotation
    JOINT LeftToe
    {
     OFFSET 0.000000 -4.965400 11.033500
     CHANNELS 3 Yrotation Xrotation Zrotation
     End Site
     {
      OFFSET 0.000000 -1.423100 5.872300
     }
    }
   }
  }
 }
}
MOTION
Frames: 16
Frame Time: 0.008333
-55.400122 51.105637 46.956159 -176.351530 -35.642383 -10.521819 0.943389 13.178595 2.791277 0.412739 7.577200 1.587385 0.550285 9.469338 1.997291 0.412738 7.577047 1.587437 4.231274 20.231674 2.142672 3.999492 -4.171980 1.259012 -2.888189 1.512969 -2.804870 -16.911473 -4.900504 9.079473 10.410704 -71.228899 0.539949 12.515345 1.208904 -5.647176 -8.280391 3.045564 -2.122060 7.822063 1.307508 -1.754423 -78.169197 -80.013619 82.769860 16.039369 -8.568495 -2.442924 -15.836406 -35.001160 6.695406 -9.138588 78.863431 -14.630381 1.131565 -6.729007 2.703386 0.057176 -1.765599 1.759673 -13.271981 -44.191791 10.530021 174.656734 77.853990 169.546298 -2.173266 -18.909558 2.711471 0.014450 0.011512 0.023608
-55.409689 51.093743 46.962613 -176.397920 -35.639673 -10.441722 0.938921 13.171476 2.753678 0.408102 7.577164 1.612527 0.568455 9.464246 1.969451 0.420722 7.574579 1.586983 4.193088 20.239131 2.089163 3.945309 -4.163393 1.169352 -2.894641 1.510244 -2.821062 -16.889454 -4.941609 9.106552 10.849935 -71.139830 0.117829 12.569676 1.260904 -5.494267 -8.285927 3.041411 -2.127493 7.819182 1.318283 -1.725718 -77.343535 -80.006691 81.937403 15.985035 -8.534992 -2.504915 -15.633833 -34.788520 6.273580 -9.838518 79.251360 -15.425208 1.021468 -6.936129 2.428163 0.032157 -1.799585 1.862903 -13.178784 -44.214559 10.442668 174.591244 77.864248 169.490838 -2.178347 -18.900015 2.704816 0.023193 0.012430 0.023851
-55.420718 51.081242 46.970132 -176.447242 -35.632541 -10.350456 0.943650 13.162654 2.710793 0.405291 7.579717 1.610797 0.573448 9.460704 2.000681 0.432277 7.569765 1.580402 4.102937 20.251925 1.951037 3.932937 -4.159371 1.127626 -2.886151 1.477762 -2.840138 -16.888686 -4.952386 9.092643 11.181055 -71.048433 -0.197444 12.627780 1.323675 -5.302151 -8.295476 3.028773 -2.158335 7.833095 1.331575 -1.710351 -76.957410 -80.008344 81.524287 15.908326 -8.426963 -2.572877 -15.454550 -34.560746 5.843202 -10.522089 79.610583 -16.228699 0.878109 -7.126178 2.173380 0.020115 -1.841613 1.938591 -13.080717 -44.243973 10.350969 174.541844 77.871180 169.443368 -2.193910 -18.894327 2.705623 0.034154 0.014863 0.025484
-55.426954 51.069858 46.977982 -176.479074 -35.626702 -10.293785 0.929798 13.163541 2.684909 0.408970 7.578761 1.614281 0.579281 9.458402 2.004710 0.440928 7.565666 1.554909 4.091178 20.253725 1.931506 3.880101 -4.147994 1.041921 -2.871283 1.446821 -2.821288 -16.894877 -4.941524 9.067148 11.310559 -70.977595 -0.313661 12.703515 1.401288 -5.064222 -8.291099 3.013546 -2.118795 7.850784 1.356855 -1.714286 -76.606149 -80.014175 81.136799 15.827099 -8.319703 -2.658159 -15.312356 -34.305538 5.441513 -11.179262 79.942172 -17.013222 0.724848 -7.311290 1.928629 0.003893 -1.875923 1.994829 -13.022076 -44.264900 10.297233 174.505636 77.878169 169.408230 -2.201231 -18.891605 2.707560 0.037590 0.020798 0.023418
-55.433503 51.057227 46.988202 -176.545707 -35.614226 -10.205268 0.905129 13.166516 2.657967 0.439921 7.567455 1.596946 0.584407 9.457157 2.009746 0.450162 7.561407 1.558198 4.046866 20.261586 1.856017 3.881673 -4.149148 1.020077 -2.855443 1.416235 -2.827395 -16.897365 -4.965264 9.064046 11.412063 -70.899586 -0.423335 12.761921 1.521044 -4.785476 -8.295986 2.979677 -2.058640 7.879206 1.405522 -1.760887 -76.288014 -80.028086 80.780615 15.743668 -8.217935 -2.755606 -15.127041 -34.053856 5.030625 -11.805376 80.241088 -17.758289 0.551946 -7.422442 1.676292 0.004586 -1.953606 2.049413 -12.926938 -44.300497 10.224120 174.454638 77.885003 169.365203 -2.206810 -18.884650 2.696677 0.051322 0.021069 0.027056
-55.432132 51.045443 46.999955 -176.620726 -35.601552 -10.146920 0.941381 13.149890 2.646645 0.424634 7.574083 1.608931 0.589179 9.456694 2.014913 0.460902 7.556808 1.562542 3.979074 20.271785 1.765985 3.879427 -4.155822 0.951092 -2.830184 1.348331 -2.792398 -16.886004 -5.008810 9.026175 11.394895 -70.709426 -0.425999 12.815753 1.596534 -4.522299 -8.296735 2.959421 -2.061400 7.903031 1.434560 -1.739614 -76.070567 -80.061070 80.532493 15.655409 -8.110110 -2.867435 -14.943116 -33.781221 4.667614 -12.376768 80.505294 -18.434160 0.387027 -7.486134 1.416381 0.002042 -2.039377 2.094190 -12.850742 -44.331280 10.194565 174.314076 77.887017 169.249483 -2.220493 -18.879247 2.676926 0.056193 0.024443 0.029280
-55.428729 51.032866 47.014004 -176.741405 -35.587685 -10.058428 0.978398 13.139753 2.635109 0.437173 7.570805 1.609176 0.594618 9.456492 2.020511 0.447869 7.566930 1.605348 3.957970 20.258071 1.661715 3.856634 -4.164162 0.873381 -2.791412 1.298391 -2.844034 -16.880060 -5.014194 8.999519 11.168112 -70.574639 -0.196070 12.878366 1.687597 -4.256618 -8.277835 2.916716 -2.089551 7.924699 1.468644 -1.726366 -76.011876 -80.118975 80.459280 15.552886 -7.979512 -3.002201 -14.704960 -33.509986 4.314005 -12.888543 80.737595 -19.032452 0.224347 -7.457381 1.144307 0.013161 -2.165231 2.133163 -12.731212 -44.369192 10.163884 174.210014 77.890339 169.172103 -2.237502 -18.872396 2.658738 0.068354 0.024257 0.033783
-55.418855 51.022396 47.027267 -176.788022 -35.581051 -10.035744 0.954359 13.149320 2.644468 0.452514 7.566912 1.611062 0.600503 9.456514 2.027681 0.452499 7.566997 1.611087 3.938982 20.246272 1.605053 3.862579 -4.167179 0.839771 -2.768348 1.275372 -2.881747 -16.860903 -5.060377 9.010072 10.872602 -70.427217 0.069626 12.933127 1.819590 -3.975729 -8.275032 2.888591 -2.068413 7.946473 1.505267 -1.723908 -75.494733 -80.112926 79.897573 15.491780 -7.948893 -3.149260 -14.509693 -33.203985 3.988505 -13.299547 80.946544 -19.504061 0.082670 -7.363958 0.872749 0.020990 -2.306400 2.152385 -12.685068 -44.390372 10.159857 174.094837 77.892872 169.089964 -2.243908 -18.867297 2.640133 0.067918 0.030037 0.031357
-55.404661 51.012306 47.041388 -176.820418 -35.578237 -10.029796 0.929517 13.161916 2.659344 0.456392 7.567117 1.618271 0.605615 9.456667 2.036797 0.456430 7.567152 1.618319 3.935045 20.233561 1.546675 3.857887 -4.173044 0.808951 -2.738891 1.232345 -2.892568 -16.847102 -5.097827 8.984473 10.551182 -70.274309 0.361925 12.981077 1.967830 -3.693423 -8.265363 2.865951 -2.061539 7.963714 1.523834 -1.747271 -75.114700 -80.079026 79.480045 15.410735 -7.890788 -3.329957 -14.301238 -32.893096 3.675724 -13.522415 81.145787 -19.754428 -0.042865 -7.191532 0.606033 0.028472 -2.462994 2.145689 -12.638641 -44.411840 10.153536 173.950419 77.892116 168.997107 -2.247095 -18.852469 2.618162 0.061442 0.029055 0.026679
-55.382804 51.002958 47.056435 -176.874571 -35.585919 -10.040075 0.928602 13.184308 2.702619 0.459527 7.567610 1.626778 0.609728 9.457197 2.047581 0.459575 7.567561 1.626798 3.933878 20.216466 1.484774 3.826456 -4.229578 0.737637 -2.743615 1.170771 -2.856176 -16.813463 -5.122608 8.898154 10.282438 -70.131337 0.626032 13.021746 2.130304 -3.416554 -8.244155 2.841293 -2.087473 7.984147 1.558701 -1.681057 -75.003292 -80.148922 79.341376 15.280763 -7.774045 -3.558129 -14.066303 -32.583324 3.396955 -13.539977 81.345457 -19.762898 -0.126355 -6.970220 0.360238 0.017449 -2.595330 2.095641 -12.626736 -44.412369 10.212723 173.896652 77.893657 168.972185 -2.233248 -18.846055 2.599154 0.041607 0.032860 0.017563
-55.358118 50.995497 47.069492 -176.899800 -35.617718 -10.068713 0.905541 13.236435 2.746750 0.461888 7.568805 1.635777 0.637926 9.446672 2.038337 0.440009 7.579676 1.660759 3.929798 20.193681 1.432939 3.831303 -4.258859 0.693218 -2.733599 1.136382 -2.871132 -16.803325 -5.149543 8.860284 10.107060 -70.000800 0.809368 13.062292 2.304511 -3.156674 -8.239310 2.831802 -2.064187 8.022649 1.589038 -1.665566 -74.717633 -80.153384 79.013816 15.192133 -7.693227 -3.811441 -13.823679 -32.269247 3.113335 -13.423810 81.552550 -19.600797 -0.180011 -6.668766 0.148978 -0.002984 -3.072513 2.286223 -12.630569 -44.385174 10.273234 173.930236 77.895413 169.030638 -2.213662 -18.844436 2.582372 0.025403 0.039237 0.010531
-55.326346 50.987361 47.085082 -176.918033 -35.645329 -10.128848 0.895223 13.278350 2.818459 0.446427 7.576864 1.647848 0.670007 9.436667 2.028639 0.413504 7.593215 1.695568 3.912994 20.157410 1.409963 3.863670 -4.281955 0.613396 -2.721876 1.102342 -2.888915 -16.807427 -5.173614 8.817647 10.040742 -69.874491 0.910446 13.117199 2.485534 -2.922759 -8.231962 2.834513 -2.036618 8.057460 1.608461 -1.675042 -74.495266 -80.120856 78.760938 15.100624 -7.592146 -4.090299 -13.580177 -31.975904 2.857419 -13.307531 81.763255 -19.405681 -0.142771 -6.415096 0.078722 -0.061615 -4.089397 2.863842 -12.665973 -44.360691 10.372006 173.846340 77.892821 168.985904 -2.215001 -18.833485 2.554944 0.011720 0.041868 0.003829
-55.294436 50.975719 47.105675 -177.006778 -35.659944 -10.134619 0.914645 13.305785 2.874615 0.480310 7.565926 1.645638 0.596745 9.469477 2.086353 0.447874 7.579433 1.666214 3.921387 20.123996 1.362893 3.882937 -4.319709 0.560994 -2.707724 1.066792 -2.909044 -16.806598 -5.194099 8.770533 10.014646 -69.755589 0.977192 13.206721 2.675099 -2.716703 -8.214171 2.841017 -2.023454 8.082881 1.630899 -1.671259 -74.422731 -80.095775 78.675848 14.983928 -7.454437 -4.388598 -13.243972 -31.697206 2.558825 -13.449921 81.940946 -19.446738 -0.006909 -6.474951 0.595642 -0.084812 -5.022729 3.054497 -12.642418 -44.361014 10.465012 173.791473 77.890989 168.968563 -2.220573 -18.819651 2.521056 0.003916 0.043853 0.003645
-55.271630 50.960328 47.129946 -177.072760 -35.655591 -10.087062 0.875051 13.329705 2.860087 0.533720 7.546258 1.640275 0.540411 9.491582 2.124170 0.459046 7.574505 1.662120 3.935977 20.087386 1.315591 3.909012 -4.360903 0.506925 -2.690561 1.028769 -2.931089 -16.764083 -5.203261 8.718860 9.900172 -69.660606 1.102989 13.341531 2.886104 -2.541217 -8.194384 2.850704 -2.013686 8.111063 1.658476 -1.666153 -74.409722 -80.063996 78.658108 14.856324 -7.300177 -4.696113 -12.853462 -31.393915 2.152417 -14.145996 82.067265 -20.045894 0.121078 -7.098831 2.130964 -0.050007 -5.308482 2.183801 -12.585551 -44.393231 10.472831 173.579616 77.895293 168.790287 -2.267031 -18.791858 2.487816 0.008143 0.047262 0.009038
-55.259143 50.943964 47.154971 -177.113429 -35.654928 -9.982963 0.811511 13.363248 2.771877 0.473221 7.565794 1.665468 0.583352 9.472937 2.110336 0.452993 7.574095 1.670632 3.958635 20.046488 1.268248 3.942438 -4.386829 0.452655 -2.666134 0.984578 -2.953470 -16.735392 -5.210415 8.660333 9.612706 -69.574176 1.426731 13.514221 3.131408 -2.396748 -8.172723 2.858408 -2.010148 8.148571 1.693617 -1.654417 -74.419924 -80.036954 78.668868 14.715426 -7.129791 -5.011919 -12.437914 -31.048126 1.676625 -14.422634 82.166340 -20.243747 0.008323 -8.146940 4.261782 0.004568 -4.798860 0.677609 -12.500485 -44.434101 10.407971 173.600711 77.907690 168.806645 -2.297534 -18.752792 2.473712 0.023852 0.045026 0.020411
-55.233440 50.916670 47.201986 -177.286512 -35.532547 -9.867255 0.847008 13.267811 2.750028 0.443501 7.572460 1.678160 0.637936 9.441862 2.089882 0.400097 7.591867 1.708100 3.988746 19.999247 1.221418 3.979189 -4.378112 0.400106 -2.636794 0.931317 -2.972372 -16.652341 -5.217280 8.582756 8.980309 -69.502416 2.049683 13.707092 3.418777 -2.276490 -8.151195 2.858748 -2.013847 8.205378 1.696902 -1.684237 -74.300315 -79.963396 78.541761 14.563456 -6.934322 -5.334859 -12.062929 -30.825719 1.333601 -13.496328 82.245335 -19.187030 -0.219409 -9.365413 6.054264 0.000131 -3.527211 -0.650513 -12.448814 -44.610293 10.483511 173.364396 77.918281 168.584242 -2.370930 -18.678322 2.431811 0.043136 0.034478 0.029149
